<svg id="Layer_1" data-name="Layer 1" xmlns="http://www.w3.org/2000/svg" viewBox="0 0 560 300"><defs><style>.cls-1,.cls-2,.cls-3,.cls-4,.cls-5,.cls-6,.cls-7,.cls-9{fill:#fff;}.cls-1{opacity:0.23;}.cls-1,.cls-2,.cls-3,.cls-4,.cls-5,.cls-6,.cls-7,.cls-8{isolation:isolate;}.cls-2{opacity:0.35;}.cls-3,.cls-8{opacity:0.47;}.cls-4{opacity:0.41;}.cls-5{opacity:0.22;}.cls-6{opacity:0.45;}.cls-7{opacity:0.17;}</style></defs><path class="cls-1" d="M1.41,84.74A21.89,21.89,0,0,0,9.87,83,22.55,22.55,0,0,0,17,78.15a23,23,0,0,0,4.81-7.34,23.08,23.08,0,0,0,0-17.29,23.41,23.41,0,0,0-4.77-7.34,21.33,21.33,0,0,0-7.17-4.89,22.85,22.85,0,0,0-8.46-1.74Z"/><path class="cls-2" d="M555.26,296.84a49.64,49.64,0,0,0-14.09-34.6,48,48,0,0,0-15.57-10.59,47.07,47.07,0,0,0-36.75,0,47.92,47.92,0,0,0-15.57,10.59,49.64,49.64,0,0,0-14.09,34.6Z"/><path class="cls-3" d="M0,0A46,46,0,0,0,3.4,17.37,44.56,44.56,0,0,0,13,32,44.2,44.2,0,0,0,27.4,41.79a43.51,43.51,0,0,0,34,0A44.2,44.2,0,0,0,75.74,32a45.37,45.37,0,0,0,9.62-14.67A45.84,45.84,0,0,0,88.76,0Z"/><path class="cls-4" d="M557.22,73.8a45.68,45.68,0,0,0-3.4-17.28,44.61,44.61,0,0,0-24-24.46,43.4,43.4,0,0,0-34,0,44.21,44.21,0,0,0-14.39,9.78,45.85,45.85,0,0,0-13,32Z"/><path class="cls-5" d="M45,251.55a47.77,47.77,0,0,0-3.4-17.66A46.71,46.71,0,0,0,32,219a44.66,44.66,0,0,0-14.42-10,43,43,0,0,0-17-3.52v46.06l44.52,0Z"/><path class="cls-5" d="M1.29,299H45.77V253a43.11,43.11,0,0,0-17,3.52,44,44,0,0,0-14.43,10A46.88,46.88,0,0,0,4.64,281.4,48.54,48.54,0,0,0,1.29,299Z"/><path class="cls-5" d="M506.56,154.19c0,12.48,11.32,22.59,25.33,22.59h25.33V131.59H531.89C517.92,131.59,506.56,141.71,506.56,154.19Z"/><path class="cls-5" d="M445.91,52.7c12.48,0,22.59-11.32,22.59-25.33V2H423.32V27.37C423.32,41.34,433.43,52.7,445.91,52.7Z"/><path class="cls-6" d="M440.6,95.49a17.33,17.33,0,1,0-17-17.33A17.19,17.19,0,0,0,440.6,95.49Z"/><path class="cls-7" d="M14.14,142.61A10,10,0,1,0,4.35,132.5v.16a9.87,9.87,0,0,0,9.79,10Z"/><path class="cls-7" d="M526.09,245A10.77,10.77,0,1,0,515.5,234v.18A10.71,10.71,0,0,0,526.09,245Z"/><path class="cls-7" d="M22.68,154.84A5.74,5.74,0,1,0,17,149v.08a5.65,5.65,0,0,0,5.64,5.76Z"/><path class="cls-7" d="M543.77,254.12a6.22,6.22,0,1,0-6.1-6.33v.09a6.1,6.1,0,0,0,6.1,6.24Z"/><path class="cls-7" d="M37.6,68.36a9.58,9.58,0,1,0-9.41-9.74v.17A9.49,9.49,0,0,0,37.6,68.36Z"/><path class="cls-5" d="M468.17,247.93a19.43,19.43,0,1,0-19.11-19.39A19.29,19.29,0,0,0,468.17,247.93Z"/><g class="cls-8"><path class="cls-9" d="M232.65,157.72A18.3,18.3,0,0,1,229.81,168a13.45,13.45,0,0,1-6,5.16,8.39,8.39,0,0,1,3.77,3.28,8.88,8.88,0,0,1,1.46,4.86q0,6.42-6.85,9.4-5.29,2.31-13.9,2.32a111.38,111.38,0,0,1-15.91-1.23q-.24-7.71-1-25.14-.5-9.37-1.49-25.68a85.2,85.2,0,0,1,15.91-1.22Q232.66,139.76,232.65,157.72ZM218.1,179.66q0-3.84-5.5-3.84a9.09,9.09,0,0,0-1.15.07l-.2,8.1C215.81,184.19,218.1,182.75,218.1,179.66Zm1.09-15.72a4.4,4.4,0,0,0-2.05-3.9,8.37,8.37,0,0,0-4.87-1.16l-.49,10Q219.19,169.11,219.19,163.94Z"/><path class="cls-9" d="M275.3,191.8H257.2L256,187.4a42.93,42.93,0,0,0-3.8,2,37.54,37.54,0,0,0-4.34,3.34l-1.88-4c-.38-.8-.92-1.91-1.63-3.35l-1.78,6.39H233q2.12-8.18,6.55-27Q242.22,152.26,244,141h19.88q.93,5.19,5.06,24.19Q271.27,175.09,275.3,191.8ZM254.43,181q-.57-1.75-2-5.69-.85-2.19-2.61-6-.77,1.92-2.39,6.28c-.59,1.68-1.3,4-2.11,6.85.66,0,2.16-.13,4.5-.4A32.28,32.28,0,0,0,254.43,181Z"/><path class="cls-9" d="M308,161.79a18.37,18.37,0,0,0-3.7-.56,4.37,4.37,0,0,0-2.85,1.06,4.15,4.15,0,0,0-1.55,3.34q0,1.59,2.84,6.12a15.94,15.94,0,0,1,2.85,8.34,11.32,11.32,0,0,1-4.2,9.06,14.7,14.7,0,0,1-9.89,3.41,30.61,30.61,0,0,1-8-.76c-.2-1-.54-2.67-1-5q-.47-1.86-1.29-4.93a26.2,26.2,0,0,0,4.9.89c3.29,0,4.93-1.24,4.93-3.74a6.94,6.94,0,0,0-2-4.86q-3.24-2.85-6.48-5.73-6.29-5.55-6.29-13.2,0-8,6-12.07,5.19-3.57,13.83-3.58a48.7,48.7,0,0,1,11,1.43Z"/><path class="cls-9" d="M333.57,141l-1.29,27q-.37,8.75-.86,23.79H312.86L310.61,141Z"/><path class="cls-9" d="M373.67,161.79a16.37,16.37,0,0,0-4.67-.56,12.94,12.94,0,0,0-8.6,2.78q-3.73,3.11-3.74,9a10.1,10.1,0,0,0,3,7.5,10.58,10.58,0,0,0,7.76,2.93,12.69,12.69,0,0,0,6.22-1.62c-.22.9-.59,2.57-1.12,5-.31,1.61-.61,3.29-.9,5a26.77,26.77,0,0,1-9.49,1.42,25.17,25.17,0,0,1-17.93-7q-8.09-7.68-8.08-20,0-11.38,6.95-18.39,7.41-7.49,20.48-7.48a40,40,0,0,1,9.1.73Z"/></g></svg>