<svg id="Layer_1" data-name="Layer 1" xmlns="http://www.w3.org/2000/svg" viewBox="0 0 560 300"><defs><style>.cls-1,.cls-2,.cls-3,.cls-4,.cls-5,.cls-6,.cls-7,.cls-9{fill:#fff;}.cls-1{opacity:0.23;}.cls-1,.cls-2,.cls-3,.cls-4,.cls-5,.cls-6,.cls-7,.cls-8{isolation:isolate;}.cls-2{opacity:0.35;}.cls-3{opacity:0.47;}.cls-4,.cls-8{opacity:0.41;}.cls-5{opacity:0.22;}.cls-6{opacity:0.45;}.cls-7{opacity:0.17;}</style></defs><path class="cls-1" d="M1.41,84.74A21.89,21.89,0,0,0,9.87,83,22.55,22.55,0,0,0,17,78.15a23,23,0,0,0,4.81-7.34,23.08,23.08,0,0,0,0-17.29,23.41,23.41,0,0,0-4.77-7.34,21.33,21.33,0,0,0-7.17-4.89,22.85,22.85,0,0,0-8.46-1.74Z"/><path class="cls-2" d="M555.26,296.84a49.64,49.64,0,0,0-14.09-34.6,48,48,0,0,0-15.57-10.59,47.07,47.07,0,0,0-36.75,0,47.92,47.92,0,0,0-15.57,10.59,49.64,49.64,0,0,0-14.09,34.6Z"/><path class="cls-3" d="M0,0A46,46,0,0,0,3.4,17.37,44.56,44.56,0,0,0,13,32,44.2,44.2,0,0,0,27.4,41.79a43.51,43.51,0,0,0,34,0A44.2,44.2,0,0,0,75.74,32a45.37,45.37,0,0,0,9.62-14.67A45.84,45.84,0,0,0,88.76,0Z"/><path class="cls-4" d="M557.22,73.8a45.68,45.68,0,0,0-3.4-17.28,44.61,44.61,0,0,0-24-24.46,43.4,43.4,0,0,0-34,0,44.21,44.21,0,0,0-14.39,9.78,45.85,45.85,0,0,0-13,32Z"/><path class="cls-5" d="M45,251.55a47.77,47.77,0,0,0-3.4-17.66A46.71,46.71,0,0,0,32,219a44.66,44.66,0,0,0-14.42-10,43,43,0,0,0-17-3.52v46.06l44.52,0Z"/><path class="cls-5" d="M1.29,299H45.77V253a43.11,43.11,0,0,0-17,3.52,44,44,0,0,0-14.43,10A46.88,46.88,0,0,0,4.64,281.4,48.54,48.54,0,0,0,1.29,299Z"/><path class="cls-5" d="M506.56,154.19c0,12.48,11.32,22.59,25.33,22.59h25.33V131.59H531.89C517.92,131.59,506.56,141.71,506.56,154.19Z"/><path class="cls-5" d="M445.91,52.7c12.48,0,22.59-11.32,22.59-25.33V2H423.32V27.37C423.32,41.34,433.43,52.7,445.91,52.7Z"/><path class="cls-6" d="M440.6,95.49a17.33,17.33,0,1,0-17-17.33A17.19,17.19,0,0,0,440.6,95.49Z"/><path class="cls-7" d="M14.14,142.61A10,10,0,1,0,4.35,132.5v.16a9.87,9.87,0,0,0,9.79,10Z"/><path class="cls-7" d="M526.09,245A10.77,10.77,0,1,0,515.5,234v.18A10.71,10.71,0,0,0,526.09,245Z"/><path class="cls-7" d="M22.68,154.84A5.74,5.74,0,1,0,17,149v.08a5.65,5.65,0,0,0,5.64,5.76Z"/><path class="cls-7" d="M543.77,254.12a6.22,6.22,0,1,0-6.1-6.33v.09a6.1,6.1,0,0,0,6.1,6.24Z"/><path class="cls-7" d="M37.6,68.36a9.58,9.58,0,1,0-9.41-9.74v.17A9.49,9.49,0,0,0,37.6,68.36Z"/><path class="cls-5" d="M468.17,247.93a19.43,19.43,0,1,0-19.11-19.39A19.29,19.29,0,0,0,468.17,247.93Z"/><g class="cls-8"><path class="cls-9" d="M189.61,150.38q0,8.06-5.16,12.9t-13.67,4.84l-.34,8.66H154.79L154,155.63q-.37-8.17-1.16-22.46a71.16,71.16,0,0,1,13-.88q10.42,0,16.7,4.17Q189.61,141.21,189.61,150.38Zm-11.79,4.77c0-3-1.75-4.43-5.25-4.43a11.28,11.28,0,0,0-1.28.08l-.28,9.94Q177.82,160.51,177.82,155.15Z"/><path class="cls-9" d="M229.61,149.5a15.32,15.32,0,0,1-2.92,9.25,14.5,14.5,0,0,1-6.47,5.06c.54.85,1.9,2.64,4.06,5.36a62.57,62.57,0,0,0,4.94,4.94c-.89.33-2.85,1.14-5.88,2.45q-3.18,1.44-6,2.84-.82-1-3.67-5.29c-.87-1.43-2.14-3.86-3.83-7.26h-.06l-.28,9.93h-16q-.3-6.18-.88-20.41-.25-8.38-1.16-23.2a136.61,136.61,0,0,1,14.25-.82Q229.61,132.35,229.61,149.5Zm-12.89,6.13a4,4,0,0,0-2.27-3.86,8.31,8.31,0,0,0-4.2-.74l-.17,9.71a8.34,8.34,0,0,0,4.2-1.05A4.38,4.38,0,0,0,216.72,155.63Z"/><path class="cls-9" d="M261.1,133.17l-1.22,18c-.7-.11-2.21-.31-4.54-.59-1.59-.15-3.33-.25-5.23-.29l-.42,5.43c2.08.05,5.48,0,10.19-.15-.21.71-.54,2-1,3.92-.27,1.16-.5,2.49-.71,4a36.62,36.62,0,0,0-4.12-.51c-1-.06-2.54-.08-4.54-.06l-.29,6.33c1.42,0,4-.14,7.84-.37a26.3,26.3,0,0,0,3.55-.68q-.22.88-1.05,4.23c-.27,1.16-.59,2.61-1,4.37H233.19l-.82-22.26q-.23-7.64-1.11-21.35Z"/><path class="cls-9" d="M309.43,133.17q-.4,6-1.17,21.75-.39,9.71-.59,21.86H297.39l-.28-13.37-10,14.42-10.82-14.31L276,176.78H265.76q-.19-6.5-.77-22-.39-8.92-1.45-21.64h16.27c.57,1.38,1.55,3.62,2.93,6.7q1.59,3.3,4.34,7.78,1.23-1.93,4.49-8c.77-1.49,1.77-3.66,3-6.5Z"/><path class="cls-9" d="M331.46,133.17l-1.1,23.2q-.32,7.5-.74,20.41H313.69l-1.93-43.61Z"/><path class="cls-9" d="M372.24,133.17l-.65,18.37q-.29,7.86-.29,23.8A43.54,43.54,0,0,1,356.48,178q-9.32,0-14.17-3.72-4.11-3.15-5.82-9.83a99.2,99.2,0,0,1-1.87-14q-.86-9.44-1.06-17.21h18.32q-.15,3.75-.34,12.21-.09,4.71.06,13.37c0,4.39.39,7.36,1.13,8.89s2.33,2.44,4.66,2.44a5.28,5.28,0,0,0,2.21-.57q0-5.83-.34-18.59-.28-6.39-1.05-17.75Z"/><path class="cls-9" d="M420.45,133.17q-.39,6-1.16,21.75-.41,9.71-.6,21.86H408.41l-.28-13.37-10,14.42-10.81-14.31L387,176.78H376.78q-.19-6.5-.77-22-.39-8.92-1.44-21.64h16.27c.56,1.38,1.54,3.62,2.92,6.7q1.59,3.3,4.34,7.78,1.23-1.93,4.49-8,1.17-2.23,3-6.5Z"/></g></svg>