<?xml version="1.0" encoding="utf-8"?>
<!-- Generator: Adobe Illustrator 24.1.1, SVG Export Plug-In . SVG Version: 6.00 Build 0)  -->
<svg version="1.1" id="Layer_1" xmlns="http://www.w3.org/2000/svg" xmlns:xlink="http://www.w3.org/1999/xlink" x="0px" y="0px"
	 viewBox="0 0 560 300" style="enable-background:new 0 0 560 300;" xml:space="preserve">
<style type="text/css">
	.st0{opacity:0.23;fill:#FFFFFF;enable-background:new    ;}
	.st1{opacity:0.35;fill:#FFFFFF;enable-background:new    ;}
	.st2{opacity:0.47;fill:#FFFFFF;enable-background:new    ;}
	.st3{opacity:0.41;fill:#FFFFFF;enable-background:new    ;}
	.st4{opacity:0.22;fill:#FFFFFF;enable-background:new    ;}
	.st5{opacity:0.45;fill:#FFFFFF;enable-background:new    ;}
	.st6{opacity:0.17;fill:#FFFFFF;enable-background:new    ;}
	.st7{fill:none;}
	.st8{opacity:0.47;enable-background:new    ;}
	.st9{fill:#FFFFFF;}
	.st10{opacity:0.41;enable-background:new    ;}
</style>
<path class="st0" d="M-21.2,519.6c2.9,0,5.8-0.6,8.5-1.7c2.7-1.2,5.1-2.8,7.2-4.9c2.1-2.1,3.7-4.6,4.8-7.3c2.2-5.6,2.2-11.7,0-17.3
	c-1.1-2.7-2.7-5.2-4.8-7.3s-4.5-3.8-7.2-4.9c-2.7-1.1-5.6-1.7-8.5-1.7L-21.2,519.6z"/>
<path class="st1" d="M532.7,731.7c0-6.4-1.3-12.8-3.7-18.7c-2.4-5.9-5.9-11.3-10.4-15.9c-4.4-4.5-9.7-8.1-15.6-10.6
	c-11.8-5-25-5-36.8,0c-5.8,2.5-11.1,6.1-15.6,10.6c-4.5,4.6-8,10-10.4,15.9c-2.4,6-3.7,12.3-3.7,18.7H532.7z"/>
<path class="st2" d="M-22.6,434.9c0,5.9,1.2,11.8,3.4,17.3c2.2,5.4,5.5,10.4,9.6,14.6c4.1,4.2,9,7.5,14.4,9.8
	c10.9,4.6,23.1,4.6,34,0c5.4-2.3,10.3-5.6,14.4-9.8c4.1-4.2,7.4-9.2,9.6-14.7c2.2-5.5,3.4-11.4,3.4-17.3H-22.6z"/>
<path class="st3" d="M534.6,508.6c0-5.9-1.2-11.8-3.4-17.3c-2.2-5.5-5.5-10.4-9.6-14.7c-4.1-4.2-9-7.5-14.4-9.8
	c-10.9-4.6-23.1-4.6-34,0c-5.4,2.3-10.3,5.6-14.4,9.8c-4.1,4.2-7.4,9.2-9.6,14.7c-2.2,5.5-3.4,11.4-3.4,17.3H534.6z"/>
<path class="st4" d="M22.5,686.4c0-6.1-1.2-12-3.4-17.7c-2.2-5.6-5.5-10.6-9.7-14.9c-4.1-4.3-9-7.6-14.4-10
	c-5.4-2.3-11.2-3.5-17-3.5v46.1L22.5,686.4L22.5,686.4z"/>
<path class="st4" d="M-21.3,733.8h44.5v-46.1c-5.8,0-11.6,1.2-17,3.5c-5.4,2.3-10.3,5.7-14.4,10c-4.1,4.3-7.4,9.4-9.7,14.9
	C-20.1,721.8-21.3,727.8-21.3,733.8L-21.3,733.8z"/>
<path class="st4" d="M484,589c0,12.5,11.3,22.6,25.3,22.6h25.3v-45.2h-25.3C495.3,566.4,484,576.5,484,589z"/>
<path class="st4" d="M423.3,487.5c12.5,0,22.6-11.3,22.6-25.3v-25.3h-45.2v25.3C400.7,476.2,410.8,487.5,423.3,487.5z"/>
<path class="st5" d="M418,530.3c9.4,0,17-7.8,17-17.3c0-9.6-7.6-17.3-17-17.3s-17,7.8-17,17.3C401,522.6,408.6,530.3,418,530.3z"/>
<path class="st6" d="M-8.5,577.4c5.5,0.1,10-4.3,10.1-9.8s-4.3-10-9.8-10.1c-5.5-0.1-10,4.3-10.1,9.8c0,0,0,0.1,0,0.2
	C-18.3,573-13.9,577.4-8.5,577.4L-8.5,577.4z"/>
<path class="st6" d="M503.5,679.8c6,0.1,10.9-4.6,10.9-10.6c0.1-6-4.6-10.9-10.6-10.9c-6-0.1-10.9,4.6-10.9,10.6c0,0,0,0.1,0,0.2
	C492.9,674.9,497.6,679.7,503.5,679.8L503.5,679.8z"/>
<path class="st6" d="M0.1,589.7c3.2,0,5.8-2.5,5.8-5.6c0-3.2-2.5-5.8-5.6-5.8c-3.2-0.1-5.8,2.5-5.8,5.6c0,0,0,0.1,0,0.1
	C-5.6,587.1-3.1,589.7,0.1,589.7L0.1,589.7z"/>
<path class="st6" d="M521.2,688.9c3.4,0,6.2-2.7,6.3-6.1c0-3.4-2.7-6.2-6.1-6.3c-3.4-0.1-6.2,2.7-6.3,6.1c0,0,0,0.1,0,0.1
	C515,686.2,517.8,688.9,521.2,688.9L521.2,688.9z"/>
<path class="st6" d="M15,503.2c5.3,0.1,9.7-4.1,9.7-9.4c0.1-5.3-4.1-9.7-9.4-9.7c-5.3-0.1-9.7,4.1-9.7,9.4c0,0,0,0.1,0,0.2
	C5.6,498.9,9.8,503.1,15,503.2z"/>
<path class="st4" d="M445.6,682.8c10.5,0,19.1-8.7,19.1-19.4c0-10.7-8.6-19.4-19.1-19.4s-19.1,8.7-19.1,19.5S435,682.8,445.6,682.8z
	"/>
<polygon class="st7" points="-1376.2,284.1 -1381.9,284.1 -1381.9,284.1 "/>
<path class="st0" d="M1.4,84.7c2.9,0,5.8-0.6,8.5-1.7c2.7-1.2,5.1-2.8,7.2-4.9c2.1-2.1,3.7-4.6,4.8-7.3c2.2-5.6,2.2-11.7,0-17.3
	c-1.1-2.7-2.7-5.2-4.8-7.3s-4.5-3.8-7.2-4.9c-2.7-1.1-5.6-1.7-8.5-1.7L1.4,84.7z"/>
<path class="st1" d="M555.3,296.8c0-6.4-1.3-12.8-3.7-18.7c-2.4-5.9-5.9-11.3-10.4-15.9c-4.4-4.5-9.7-8.1-15.6-10.6
	c-11.8-5-25-5-36.8,0c-5.8,2.5-11.1,6.1-15.6,10.6c-4.5,4.6-8,10-10.4,15.9c-2.4,6-3.7,12.3-3.7,18.7H555.3z"/>
<path class="st2" d="M0,0C0,6,1.2,11.9,3.4,17.4C5.6,22.8,8.9,27.8,13,32c4.1,4.2,9,7.5,14.4,9.8c10.9,4.6,23.1,4.6,34,0
	c5.4-2.3,10.3-5.6,14.4-9.8c4.1-4.2,7.4-9.2,9.6-14.7C87.6,11.8,88.8,6,88.8,0L0,0z"/>
<path class="st3" d="M557.2,73.8c0-5.9-1.2-11.8-3.4-17.3c-2.2-5.5-5.5-10.4-9.6-14.7c-4.1-4.2-9-7.5-14.4-9.8
	c-10.9-4.6-23.1-4.6-34,0c-5.4,2.3-10.3,5.6-14.4,9.8c-4.1,4.2-7.4,9.2-9.6,14.7c-2.2,5.5-3.4,11.4-3.4,17.3H557.2z"/>
<path class="st4" d="M45,251.6c0-6.1-1.2-12-3.4-17.7c-2.2-5.6-5.5-10.6-9.7-14.9c-4.1-4.3-9-7.6-14.4-10c-5.4-2.3-11.2-3.5-17-3.5
	v46.1L45,251.6L45,251.6z"/>
<path class="st4" d="M1.3,299h44.5V253c-5.8,0-11.6,1.2-17,3.5c-5.4,2.3-10.3,5.7-14.4,10c-4.1,4.3-7.4,9.4-9.7,14.9
	C2.4,287,1.3,293,1.3,299L1.3,299z"/>
<path class="st4" d="M506.6,154.2c0,12.5,11.3,22.6,25.3,22.6h25.3v-45.2h-25.3C517.9,131.6,506.6,141.7,506.6,154.2z"/>
<path class="st4" d="M445.9,52.7c12.5,0,22.6-11.3,22.6-25.3V2h-45.2v25.3C423.3,41.3,433.4,52.7,445.9,52.7z"/>
<path class="st5" d="M440.6,95.5c9.4,0,17-7.8,17-17.3s-7.6-17.3-17-17.3s-17,7.8-17,17.3S431.2,95.5,440.6,95.5z"/>
<path class="st6" d="M14.1,142.6c5.5,0.1,10-4.3,10.1-9.8s-4.3-10-9.8-10.1c-5.5-0.1-10,4.3-10.1,9.8c0,0,0,0.1,0,0.2
	C4.3,138.1,8.7,142.6,14.1,142.6L14.1,142.6z"/>
<path class="st6" d="M526.1,245c6,0.1,10.9-4.6,10.9-10.6c0.1-6-4.6-10.9-10.6-10.9c-6-0.1-10.9,4.6-10.9,10.6c0,0,0,0.1,0,0.2
	C515.5,240.1,520.2,244.9,526.1,245L526.1,245z"/>
<path class="st6" d="M22.7,154.8c3.2,0,5.8-2.5,5.8-5.6c0-3.2-2.5-5.8-5.6-5.8s-5.8,2.5-5.8,5.6c0,0,0,0.1,0,0.1
	C17,152.3,19.5,154.8,22.7,154.8L22.7,154.8z"/>
<path class="st6" d="M543.8,254.1c3.4,0,6.2-2.7,6.3-6.1c0-3.4-2.7-6.2-6.1-6.3s-6.2,2.7-6.3,6.1c0,0,0,0.1,0,0.1
	C537.6,251.3,540.4,254.1,543.8,254.1L543.8,254.1z"/>
<path class="st6" d="M37.6,68.4c5.3,0.1,9.7-4.1,9.7-9.4c0.1-5.3-4.1-9.7-9.4-9.7c-5.3-0.1-9.7,4.1-9.7,9.4c0,0,0,0.1,0,0.2
	C28.1,64.1,32.4,68.3,37.6,68.4z"/>
<path class="st4" d="M468.2,247.9c10.5,0,19.1-8.7,19.1-19.4s-8.6-19.4-19.1-19.4s-19.1,8.7-19.1,19.5S457.6,247.9,468.2,247.9z"/>
<path class="st0" d="M-854.1,84.7c2.9,0,5.8-0.6,8.5-1.7c2.7-1.2,5.1-2.8,7.2-4.9c2.1-2.1,3.7-4.6,4.8-7.3c2.2-5.6,2.2-11.7,0-17.3
	c-1.1-2.7-2.7-5.2-4.8-7.3s-4.5-3.8-7.2-4.9c-2.7-1.1-5.6-1.7-8.5-1.7L-854.1,84.7z"/>
<path class="st1" d="M-300.3,296.8c0-6.4-1.3-12.8-3.7-18.7c-2.4-5.9-5.9-11.3-10.4-15.9c-4.4-4.5-9.7-8.1-15.6-10.6
	c-11.8-5-25-5-36.8,0c-5.8,2.5-11.1,6.1-15.6,10.6c-4.5,4.6-8,10-10.4,15.9c-2.4,6-3.7,12.3-3.7,18.7H-300.3z"/>
<path class="st2" d="M-855.5,0c0,5.9,1.2,11.8,3.4,17.3c2.2,5.4,5.5,10.4,9.6,14.6c4.1,4.2,9,7.5,14.4,9.8c10.9,4.6,23.1,4.6,34,0
	c5.4-2.3,10.3-5.6,14.4-9.8c4.1-4.2,7.4-9.2,9.6-14.7c2.2-5.5,3.4-11.4,3.4-17.3L-855.5,0z"/>
<path class="st3" d="M-298.3,73.8c0-5.9-1.2-11.8-3.4-17.3c-2.2-5.5-5.5-10.4-9.6-14.7c-4.1-4.2-9-7.5-14.4-9.8
	c-10.9-4.6-23.1-4.6-34,0c-5.4,2.3-10.3,5.6-14.4,9.8c-4.1,4.2-7.4,9.2-9.6,14.7c-2.2,5.5-3.4,11.4-3.4,17.3H-298.3z"/>
<path class="st4" d="M-810.5,251.6c0-6.1-1.2-12-3.4-17.7c-2.2-5.6-5.5-10.6-9.7-14.9c-4.1-4.3-9-7.6-14.4-10
	c-5.4-2.3-11.2-3.5-17-3.5v46.1L-810.5,251.6L-810.5,251.6z"/>
<path class="st4" d="M-854.2,299h44.5V253c-5.8,0-11.6,1.2-17,3.5c-5.4,2.3-10.3,5.7-14.4,10c-4.1,4.3-7.4,9.4-9.7,14.9
	C-853.1,287-854.2,293-854.2,299L-854.2,299z"/>
<path class="st4" d="M-349,154.2c0,12.5,11.3,22.6,25.3,22.6h25.3v-45.2h-25.3C-337.6,131.6-349,141.7-349,154.2z"/>
<path class="st4" d="M-409.6,52.7c12.5,0,22.6-11.3,22.6-25.3V2h-45.2v25.3C-432.2,41.3-422.1,52.7-409.6,52.7z"/>
<path class="st5" d="M-414.9,95.5c9.4,0,17-7.8,17-17.3s-7.6-17.3-17-17.3c-9.4,0-17,7.8-17,17.3S-424.3,95.5-414.9,95.5z"/>
<path class="st6" d="M-841.4,142.6c5.5,0.1,10-4.3,10.1-9.8c0.1-5.5-4.3-10-9.8-10.1c-5.5-0.1-10,4.3-10.1,9.8c0,0,0,0.1,0,0.2
	C-851.2,138.1-846.8,142.6-841.4,142.6L-841.4,142.6z"/>
<path class="st6" d="M-329.4,245c6,0.1,10.9-4.6,10.9-10.6s-4.6-10.9-10.6-10.9c-6-0.1-10.9,4.6-10.9,10.6c0,0,0,0.1,0,0.2
	C-340.1,240.1-335.4,244.9-329.4,245L-329.4,245z"/>
<path class="st6" d="M-832.9,154.8c3.2,0,5.8-2.5,5.8-5.6c0-3.2-2.5-5.8-5.6-5.8c-3.2-0.1-5.8,2.5-5.8,5.6c0,0,0,0.1,0,0.1
	C-838.5,152.3-836,154.8-832.9,154.8L-832.9,154.8z"/>
<path class="st6" d="M-311.8,254.1c3.4,0,6.2-2.7,6.3-6.1c0-3.4-2.7-6.2-6.1-6.3c-3.4-0.1-6.2,2.7-6.3,6.1c0,0,0,0.1,0,0.1
	C-317.9,251.3-315.2,254.1-311.8,254.1L-311.8,254.1z"/>
<path class="st6" d="M-817.9,68.4c5.3,0.1,9.7-4.1,9.7-9.4c0.1-5.3-4.1-9.7-9.4-9.7c-5.3-0.1-9.7,4.1-9.7,9.4c0,0,0,0.1,0,0.2
	C-827.4,64.1-823.2,68.3-817.9,68.4z"/>
<path class="st4" d="M-387.4,247.9c10.5,0,19.1-8.7,19.1-19.4s-8.6-19.4-19.1-19.4s-19.1,8.7-19.1,19.5S-397.9,247.9-387.4,247.9z"
	/>
<g class="st8">
	<path class="st9" d="M-622.9,157.7c0,4-0.9,7.4-2.8,10.3c-1.6,2.4-3.6,4.1-6,5.2c1.5,0.7,2.8,1.8,3.8,3.3c1,1.5,1.5,3.1,1.5,4.9
		c0,4.3-2.3,7.4-6.8,9.4c-3.5,1.5-8.2,2.3-13.9,2.3c-4.9,0-10.2-0.4-15.9-1.2c-0.2-5.1-0.5-13.5-1-25.1c-0.3-6.2-0.8-14.8-1.5-25.7
		c4.2-0.8,9.5-1.2,15.9-1.2C-631.8,139.8-622.9,145.7-622.9,157.7z M-637.4,179.7c0-2.6-1.8-3.8-5.5-3.8c-0.4,0-0.8,0-1.2,0.1
		l-0.2,8.1C-639.7,184.2-637.4,182.7-637.4,179.7z M-636.3,163.9c0-1.7-0.7-3-2.1-3.9c-1.2-0.8-2.9-1.2-4.9-1.2l-0.5,10
		C-638.8,169-636.3,167.4-636.3,163.9z"/>
	<path class="st9" d="M-580.2,191.8h-18.1l-1.2-4.4c-0.5,0.2-1.8,0.9-3.8,2c-1.3,0.8-2.7,2-4.3,3.3l-1.9-4c-0.4-0.8-0.9-1.9-1.6-3.3
		l-1.8,6.4h-9.6c1.4-5.4,3.6-14.4,6.6-27c1.8-8.4,3.3-16.3,4.5-23.9h19.9c0.6,3.5,2.3,11.5,5.1,24.2
		C-585,171.8-582.9,180.7-580.2,191.8z M-601.1,180.9c-0.4-1.2-1-3.1-2-5.7c-0.6-1.5-1.4-3.5-2.6-6c-0.5,1.3-1.3,3.4-2.4,6.3
		c-0.6,1.7-1.3,4-2.1,6.8c0.7,0,2.2-0.1,4.5-0.4C-604.3,181.8-602.8,181.4-601.1,180.9z"/>
	<path class="st9" d="M-547.5,161.8c-1.6-0.4-2.9-0.6-3.7-0.6c-1,0-2,0.4-2.8,1.1c-1,0.9-1.6,2-1.6,3.3c0,1.1,0.9,3.1,2.8,6.1
		c1.9,3,2.8,5.8,2.8,8.3c0,3.7-1.4,6.7-4.2,9.1c-2.7,2.3-6,3.4-9.9,3.4c-3.6,0-6.3-0.3-8-0.8c-0.2-1-0.5-2.7-1-5
		c-0.3-1.2-0.7-2.9-1.3-4.9c2.4,0.6,4.1,0.9,4.9,0.9c3.3,0,4.9-1.2,4.9-3.7c0-1.8-0.7-3.4-2-4.9c-2.2-1.9-4.3-3.8-6.5-5.7
		c-4.2-3.7-6.3-8.1-6.3-13.2c0-5.3,2-9.3,6-12.1c3.5-2.4,8.1-3.6,13.8-3.6c3.3,0,6.9,0.5,11,1.4L-547.5,161.8z"/>
	<path class="st9" d="M-522,141l-1.3,27c-0.2,5.8-0.5,13.8-0.9,23.8h-18.6l-2.3-50.8H-522z"/>
	<path class="st9" d="M-481.9,161.8c-1.2-0.4-2.8-0.6-4.7-0.6c-3.5,0-6.4,0.9-8.6,2.8c-2.5,2.1-3.7,5.1-3.7,9c0,3,1,5.5,3,7.5
		c2,2,4.6,2.9,7.8,2.9c2.2,0,4.3-0.5,6.2-1.6c-0.2,0.9-0.6,2.6-1.1,5c-0.3,1.6-0.6,3.3-0.9,5c-2.5,0.9-5.6,1.4-9.5,1.4
		c-7,0-13-2.3-17.9-7c-5.4-5.1-8.1-11.8-8.1-20c0-7.6,2.3-13.7,6.9-18.4c4.9-5,11.8-7.5,20.5-7.5c4.2,0,7.2,0.2,9.1,0.7
		L-481.9,161.8z"/>
</g>
<g class="st10">
	<path class="st9" d="M179.3,156.3c-1.4-0.3-2.4-0.5-3.2-0.5c-0.9,0-1.7,0.3-2.4,0.9c-0.9,0.7-1.3,1.7-1.3,2.8
		c0,0.9,0.8,2.6,2.4,5.2c1.6,2.6,2.4,4.9,2.4,7.1c0,3.1-1.2,5.7-3.6,7.7c-2.3,1.9-5.1,2.9-8.4,2.9c-3.1,0-5.4-0.2-6.8-0.6
		c-0.2-0.9-0.5-2.3-0.9-4.2c-0.3-1.1-0.6-2.5-1.1-4.2c2.1,0.5,3.5,0.8,4.2,0.8c2.8,0,4.2-1.1,4.2-3.2c0-1.5-0.6-2.9-1.7-4.1
		c-1.8-1.6-3.7-3.2-5.5-4.9c-3.6-3.2-5.4-6.9-5.4-11.2c0-4.5,1.7-8,5.1-10.3c2.9-2,6.9-3,11.8-3c2.8,0,5.9,0.4,9.4,1.2L179.3,156.3z
		"/>
	<path class="st9" d="M215.9,138.6l-0.8,17.7c-0.7-0.1-1.9-0.3-3.5-0.4c-1-0.1-2.6-0.1-4.8-0.2c-0.1,1.1-0.3,3.8-0.6,8
		c-0.2,4.1-0.5,10.2-1,18.1h-13.6c-0.2-3.8-0.4-9.8-0.8-17.9c-0.2-2.8-0.4-5.6-0.6-8.3l-4.5,0.2l-4,0.4l-0.7-17.7H215.9z"/>
	<path class="st9" d="M252,181.8h-15.4l-1-3.7c-0.4,0.2-1.5,0.7-3.2,1.7c-1.1,0.7-2.3,1.7-3.7,2.8l-1.6-3.4
		c-0.3-0.7-0.8-1.6-1.4-2.8l-1.5,5.4h-8.2c1.2-4.6,3.1-12.3,5.6-23c1.5-7.1,2.8-13.9,3.9-20.3h16.9c0.5,2.9,2,9.8,4.3,20.6
		C247.9,164.8,249.7,172.4,252,181.8z M234.2,172.6c-0.3-1-0.9-2.6-1.7-4.8c-0.5-1.2-1.2-2.9-2.2-5.1c-0.4,1.1-1.1,2.9-2,5.4
		c-0.5,1.4-1.1,3.4-1.8,5.8c0.6,0,1.8-0.1,3.8-0.3C231.5,173.3,232.8,173,234.2,172.6z"/>
	<path class="st9" d="M287.7,138.6c-0.3,3.8-0.6,10.4-1.1,19.9c-0.3,7-0.5,14.9-0.7,24c-2.5-1.9-6.2-4.8-11.2-8.7
		c-2.2-1.5-5.4-3.8-9.8-6.8l-0.3,14.9h-9.1c-0.2-3.8-0.5-11-1-21.6c-0.5-8.6-0.9-15.8-1.4-21.7h14.1l10.5,9.9c0-2.3,0-4.1-0.1-5.4
		c-0.1-1.1-0.2-2.7-0.3-4.6H287.7z"/>
	<path class="st9" d="M328.5,160.5c0,6.8-2.1,12.1-6.3,16c-4.3,4-10.5,6.1-18.3,6.1c-5.1,0-9-0.3-11.8-0.8l-0.8-20.9
		c-0.2-5.4-0.7-12.8-1.3-22.2c4.1-0.6,8.3-0.9,12.8-0.9c7.9,0,14.1,1.8,18.6,5.5C326.1,147.3,328.5,153,328.5,160.5z M316.9,164
		c0-2.8-0.9-4.8-2.7-6.1c-1.5-1.1-3.4-1.6-5.7-1.5l-0.4,17.7c2.4-0.2,4.4-0.9,5.9-2.3C316,170,316.9,167.4,316.9,164z"/>
	<path class="st9" d="M365.1,181.8h-15.4l-1-3.7c-0.4,0.2-1.5,0.7-3.2,1.7c-1.1,0.7-2.3,1.7-3.7,2.8l-1.6-3.4
		c-0.3-0.7-0.8-1.6-1.4-2.8l-1.5,5.4H329c1.2-4.6,3.1-12.3,5.6-23c1.5-7.1,2.8-13.9,3.9-20.3h16.9c0.5,2.9,2,9.8,4.3,20.6
		C361,164.8,362.8,172.4,365.1,181.8z M347.3,172.6c-0.3-1-0.9-2.6-1.7-4.8c-0.5-1.2-1.2-2.9-2.2-5.1c-0.4,1.1-1.1,2.9-2,5.4
		c-0.5,1.4-1.1,3.4-1.8,5.8c0.6,0,1.8-0.1,3.8-0.3C344.6,173.3,345.9,173,347.3,172.6z"/>
	<path class="st9" d="M404,154.8c0,3.5-1,6.5-2.9,9.2c-1.7,2.3-3.9,4-6.4,5c0.5,0.8,1.9,2.6,4,5.3c1.1,1.2,2.7,2.9,4.9,4.9
		c-0.9,0.3-2.8,1.1-5.8,2.4c-2.1,1-4.1,1.9-5.9,2.8c-0.5-0.7-1.8-2.4-3.6-5.2c-0.9-1.4-2.1-3.8-3.8-7.2h-0.1l-0.3,9.9h-15.9
		c-0.2-4.1-0.5-10.8-0.9-20.3c-0.2-5.5-0.6-13.2-1.2-23c5.2-0.5,9.9-0.8,14.1-0.8C396.1,137.7,404,143.4,404,154.8z M391.2,160.8
		c0-1.8-0.8-3.1-2.3-3.8c-1.1-0.6-2.5-0.8-4.2-0.7l-0.2,9.6c1.6,0,2.9-0.3,4.2-1C390.4,164,391.2,162.6,391.2,160.8z"/>
	<path class="st9" d="M444.1,160.5c0,6.8-2.1,12.1-6.3,16c-4.3,4-10.5,6.1-18.3,6.1c-5.1,0-9-0.3-11.8-0.8l-0.8-20.9
		c-0.2-5.4-0.7-12.8-1.3-22.2c4.1-0.6,8.3-0.9,12.8-0.9c7.9,0,14.1,1.8,18.6,5.5C441.7,147.3,444.1,153,444.1,160.5z M432.6,164
		c0-2.8-0.9-4.8-2.7-6.1c-1.5-1.1-3.4-1.6-5.7-1.5l-0.4,17.7c2.4-0.2,4.4-0.9,5.9-2.3C431.6,170,432.6,167.4,432.6,164z"/>
</g>
<g class="st10">
	<path class="st9" d="M167,585.2c0,5.4-1.7,9.7-5.2,12.9c-3.4,3.2-8,4.8-13.7,4.8l-0.3,8.7h-15.6l-0.8-21.2
		c-0.2-5.5-0.6-12.9-1.2-22.5c3-0.6,7.3-0.9,13-0.9c6.9,0,12.5,1.4,16.7,4.2C164.6,574.4,167,579.1,167,585.2z M155.2,590
		c0-3-1.8-4.4-5.3-4.4c-0.4,0-0.8,0-1.3,0.1l-0.3,9.9C153,595.4,155.2,593.5,155.2,590z"/>
	<path class="st9" d="M207,584.3c0,3.5-1,6.6-2.9,9.3c-1.7,2.3-3.9,4-6.5,5.1c0.5,0.9,1.9,2.6,4.1,5.4c1.1,1.2,2.7,2.9,4.9,4.9
		c-0.9,0.3-2.8,1.1-5.9,2.4c-2.1,1-4.1,1.9-6,2.8c-0.5-0.7-1.8-2.4-3.7-5.3c-0.9-1.4-2.1-3.9-3.8-7.3h-0.1l-0.3,9.9h-16
		c-0.2-4.1-0.5-10.9-0.9-20.4c-0.2-5.6-0.6-13.3-1.2-23.2c5.2-0.5,10-0.8,14.3-0.8C199.1,567.2,207,572.9,207,584.3z M194.1,590.5
		c0-1.8-0.8-3.1-2.3-3.9c-1.1-0.6-2.5-0.8-4.2-0.7l-0.2,9.7c1.6,0,3-0.3,4.2-1.1C193.3,593.6,194.1,592.3,194.1,590.5z"/>
	<path class="st9" d="M238.5,568l-1.2,18c-0.7-0.1-2.2-0.3-4.5-0.6c-1.6-0.2-3.3-0.2-5.2-0.3l-0.4,5.4c2.1,0.1,5.5,0,10.2-0.1
		c-0.2,0.7-0.5,2-1,3.9c-0.3,1.2-0.5,2.5-0.7,4c-0.5-0.1-1.9-0.3-4.1-0.5c-1-0.1-2.5-0.1-4.5-0.1l-0.3,6.3c1.4,0,4-0.1,7.8-0.4
		c0.7-0.1,1.9-0.3,3.5-0.7c-0.2,0.6-0.5,2-1,4.2c-0.3,1.2-0.6,2.6-1,4.4h-25.4l-0.8-22.3c-0.2-5.1-0.5-12.2-1.1-21.4H238.5z"/>
	<path class="st9" d="M286.8,568c-0.3,4-0.7,11.2-1.2,21.8c-0.3,6.5-0.5,13.8-0.6,21.9h-10.3l-0.3-13.4l-10,14.4l-10.8-14.3
		l-0.3,13.3h-10.2c-0.1-4.3-0.4-11.7-0.8-22c-0.3-5.9-0.7-13.2-1.4-21.6h16.3c0.6,1.4,1.5,3.6,2.9,6.7c1.1,2.2,2.5,4.8,4.3,7.8
		c0.8-1.3,2.3-3.9,4.5-8c0.8-1.5,1.8-3.7,3-6.5H286.8z"/>
	<path class="st9" d="M308.9,568l-1.1,23.2c-0.2,5-0.5,11.8-0.7,20.4h-15.9l-1.9-43.6H308.9z"/>
	<path class="st9" d="M349.7,568l-0.7,18.4c-0.2,5.2-0.3,13.2-0.3,23.8c-4.8,1.7-9.8,2.6-14.8,2.6c-6.2,0-10.9-1.2-14.2-3.7
		c-2.7-2.1-4.7-5.4-5.8-9.8c-0.7-2.6-1.3-7.2-1.9-14c-0.6-6.3-0.9-12-1.1-17.2h18.3c-0.1,2.5-0.2,6.6-0.3,12.2
		c-0.1,3.1,0,7.6,0.1,13.4c0,4.4,0.4,7.4,1.1,8.9c0.8,1.6,2.3,2.4,4.7,2.4c0.7,0,1.4-0.2,2.2-0.6c0-3.9-0.1-10.1-0.3-18.6
		c-0.2-4.3-0.5-10.2-1.1-17.7H349.7z"/>
	<path class="st9" d="M397.9,568c-0.3,4-0.7,11.2-1.2,21.8c-0.3,6.5-0.5,13.8-0.6,21.9h-10.3l-0.3-13.4l-10,14.4l-10.8-14.3
		l-0.3,13.3h-10.2c-0.1-4.3-0.4-11.7-0.8-22c-0.3-5.9-0.7-13.2-1.4-21.6h16.3c0.6,1.4,1.5,3.6,2.9,6.7c1.1,2.2,2.5,4.8,4.3,7.8
		c0.8-1.3,2.3-3.9,4.5-8c0.8-1.5,1.8-3.7,3-6.5H397.9z"/>
</g>
</svg>
