<svg id="Layer_1" data-name="Layer 1" xmlns="http://www.w3.org/2000/svg" viewBox="0 0 560 300"><defs><style>.cls-1,.cls-2,.cls-3,.cls-4,.cls-5,.cls-6,.cls-7,.cls-9{fill:#fff;}.cls-1{opacity:0.23;}.cls-1,.cls-2,.cls-3,.cls-4,.cls-5,.cls-6,.cls-7,.cls-8{isolation:isolate;}.cls-2{opacity:0.35;}.cls-3{opacity:0.47;}.cls-4,.cls-8{opacity:0.41;}.cls-5{opacity:0.22;}.cls-6{opacity:0.45;}.cls-7{opacity:0.17;}</style></defs><path class="cls-1" d="M1.41,84.74A21.89,21.89,0,0,0,9.87,83,22.55,22.55,0,0,0,17,78.15a23,23,0,0,0,4.81-7.34,23.08,23.08,0,0,0,0-17.29,23.41,23.41,0,0,0-4.77-7.34,21.33,21.33,0,0,0-7.17-4.89,22.85,22.85,0,0,0-8.46-1.74Z"/><path class="cls-2" d="M555.26,296.84a49.64,49.64,0,0,0-14.09-34.6,48,48,0,0,0-15.57-10.59,47.07,47.07,0,0,0-36.75,0,47.92,47.92,0,0,0-15.57,10.59,49.64,49.64,0,0,0-14.09,34.6Z"/><path class="cls-3" d="M0,0A46,46,0,0,0,3.4,17.37,44.56,44.56,0,0,0,13,32,44.2,44.2,0,0,0,27.4,41.79a43.51,43.51,0,0,0,34,0A44.2,44.2,0,0,0,75.74,32a45.37,45.37,0,0,0,9.62-14.67A45.84,45.84,0,0,0,88.76,0Z"/><path class="cls-4" d="M557.22,73.8a45.68,45.68,0,0,0-3.4-17.28,44.61,44.61,0,0,0-24-24.46,43.4,43.4,0,0,0-34,0,44.21,44.21,0,0,0-14.39,9.78,45.85,45.85,0,0,0-13,32Z"/><path class="cls-5" d="M45,251.55a47.77,47.77,0,0,0-3.4-17.66A46.71,46.71,0,0,0,32,219a44.66,44.66,0,0,0-14.42-10,43,43,0,0,0-17-3.52v46.06l44.52,0Z"/><path class="cls-5" d="M1.29,299H45.77V253a43.11,43.11,0,0,0-17,3.52,44,44,0,0,0-14.43,10A46.88,46.88,0,0,0,4.64,281.4,48.54,48.54,0,0,0,1.29,299Z"/><path class="cls-5" d="M506.56,154.19c0,12.48,11.32,22.59,25.33,22.59h25.33V131.59H531.89C517.92,131.59,506.56,141.71,506.56,154.19Z"/><path class="cls-5" d="M445.91,52.7c12.48,0,22.59-11.32,22.59-25.33V2H423.32V27.37C423.32,41.34,433.43,52.7,445.91,52.7Z"/><path class="cls-6" d="M440.6,95.49a17.33,17.33,0,1,0-17-17.33A17.19,17.19,0,0,0,440.6,95.49Z"/><path class="cls-7" d="M14.14,142.61A10,10,0,1,0,4.35,132.5v.16a9.87,9.87,0,0,0,9.79,10Z"/><path class="cls-7" d="M526.09,245A10.77,10.77,0,1,0,515.5,234v.18A10.71,10.71,0,0,0,526.09,245Z"/><path class="cls-7" d="M22.68,154.84A5.74,5.74,0,1,0,17,149v.08a5.65,5.65,0,0,0,5.64,5.76Z"/><path class="cls-7" d="M543.77,254.12a6.22,6.22,0,1,0-6.1-6.33v.09a6.1,6.1,0,0,0,6.1,6.24Z"/><path class="cls-7" d="M37.6,68.36a9.58,9.58,0,1,0-9.41-9.74v.17A9.49,9.49,0,0,0,37.6,68.36Z"/><path class="cls-5" d="M468.17,247.93a19.43,19.43,0,1,0-19.11-19.39A19.29,19.29,0,0,0,468.17,247.93Z"/><g class="cls-8"><path class="cls-9" d="M179.29,156.28a15.48,15.48,0,0,0-3.16-.48,3.73,3.73,0,0,0-2.42.9,3.53,3.53,0,0,0-1.33,2.85q0,1.35,2.43,5.21a13.69,13.69,0,0,1,2.42,7.11,9.64,9.64,0,0,1-3.58,7.72,12.56,12.56,0,0,1-8.42,2.9,26.16,26.16,0,0,1-6.82-.65c-.17-.86-.46-2.27-.88-4.23-.26-1.05-.63-2.45-1.1-4.19a22.66,22.66,0,0,0,4.17.76c2.8,0,4.2-1.07,4.2-3.19a5.93,5.93,0,0,0-1.69-4.14c-1.84-1.62-3.68-3.24-5.52-4.88a14.53,14.53,0,0,1-5.36-11.24q0-6.79,5.08-10.28,4.42-3,11.78-3a41.86,41.86,0,0,1,9.35,1.21Z"/><path class="cls-9" d="M215.89,138.56l-.81,17.72c-.74-.11-1.91-.25-3.53-.42-1-.06-2.61-.11-4.84-.17-.12,1.11-.31,3.79-.59,8s-.55,10.16-1,18.12H191.46q-.22-5.68-.84-17.89-.28-4.23-.6-8.26l-4.45.17-4,.42-.7-17.72Z"/><path class="cls-9" d="M252,181.84H236.61l-1.05-3.75c-.43.17-1.51.75-3.24,1.72a33.19,33.19,0,0,0-3.69,2.85L227,179.25q-.48-1-1.38-2.85l-1.52,5.44H216q1.8-7,5.58-23,2.31-10.69,3.86-20.31h16.94q.78,4.42,4.31,20.6Q248.58,167.61,252,181.84Zm-17.78-9.24c-.32-1-.88-2.61-1.69-4.85q-.74-1.86-2.23-5.13-.65,1.63-2,5.36c-.5,1.42-1.11,3.37-1.8,5.83.56,0,1.84-.11,3.83-.34A28.44,28.44,0,0,0,234.24,172.6Z"/><path class="cls-9" d="M287.7,138.56q-.4,5.69-1.1,19.86-.42,10.43-.71,24-3.69-2.9-11.24-8.65l-9.75-6.84-.28,14.93h-9.08q-.22-5.72-1-21.58-.7-12.85-1.44-21.7h14.15l10.48,9.92c0-2.28,0-4.06-.11-5.36-.06-1.14-.17-2.66-.34-4.56Z"/><path class="cls-9" d="M328.5,160.54q0,10.17-6.31,16-6.51,6.06-18.35,6.06a68.89,68.89,0,0,1-11.75-.76l-.76-20.94q-.36-8.06-1.32-22.23a90.48,90.48,0,0,1,12.76-.87q11.87,0,18.57,5.52Q328.51,149.23,328.5,160.54ZM317,164c0-2.76-.9-4.8-2.68-6.11a8.69,8.69,0,0,0-5.69-1.49l-.4,17.66a9.24,9.24,0,0,0,5.89-2.33Q317,169.11,317,164Z"/><path class="cls-9" d="M365.11,181.84H349.69l-1-3.75c-.43.17-1.51.75-3.24,1.72a33.19,33.19,0,0,0-3.69,2.85l-1.61-3.41q-.48-1-1.38-2.85l-1.52,5.44H329q1.8-7,5.58-23,2.31-10.69,3.86-20.31h16.93q.79,4.42,4.31,20.6Q361.67,167.61,365.11,181.84Zm-17.78-9.24c-.32-1-.89-2.61-1.7-4.85-.48-1.24-1.23-2.95-2.22-5.13q-.65,1.63-2,5.36c-.51,1.42-1.11,3.37-1.8,5.83.56,0,1.84-.11,3.83-.34A28.44,28.44,0,0,0,347.33,172.6Z"/><path class="cls-9" d="M404,154.76a15.22,15.22,0,0,1-2.91,9.19,14.37,14.37,0,0,1-6.42,5c.54.85,1.89,2.62,4,5.33a65.19,65.19,0,0,0,4.9,4.9c-.88.32-2.83,1.13-5.83,2.43q-3.16,1.42-5.95,2.81c-.54-.67-1.76-2.42-3.63-5.24-.87-1.42-2.14-3.83-3.81-7.21h-.05l-.29,9.86H368.18q-.31-6.14-.88-20.26-.24-8.31-1.15-23a134.5,134.5,0,0,1,14.15-.82Q404,137.74,404,154.76Zm-12.8,6.09A4,4,0,0,0,389,157a8.3,8.3,0,0,0-4.17-.74l-.17,9.64a8.32,8.32,0,0,0,4.17-1A4.36,4.36,0,0,0,391.2,160.85Z"/><path class="cls-9" d="M444.12,160.54q0,10.17-6.31,16-6.51,6.06-18.34,6.06a69,69,0,0,1-11.76-.76L407,160.9q-.36-8.06-1.32-22.23a90.48,90.48,0,0,1,12.76-.87q11.87,0,18.57,5.52Q444.13,149.23,444.12,160.54ZM432.57,164q0-4.14-2.68-6.11a8.69,8.69,0,0,0-5.69-1.49l-.4,17.66a9.24,9.24,0,0,0,5.89-2.33Q432.57,169.11,432.57,164Z"/></g></svg>